#format: frame checksums
#version: 1
#hash: MD5
#tb 0: 1001/30000
#stream#, dts,        pts, duration,     size, hash
0,          0,          0,        1,    63630, e4663a28cabbfdd3815efda2d38debcc
0,          1,          1,        1,    63630, 3cc7dbec64e9f697f40d740a72c09fc7
0,          2,          2,        1,    63630, f108981e0ce9c6c501b9ac61d0f1ba44
0,          3,          3,        1,    63630, 63191c7aceb8ac6b030cc1a4b3cda18c
0,          4,          4,        1,    63630, b0a527ae3aafe94d13573199c6f4944f
0,          5,          5,        1,    63630, 1be14b213ebf1d653468b8c16bae03fb
0,          6,          6,        1,    63630, 44e5a8333a043cd93b9d1cc78e5f188f
0,          7,          7,        1,    63630, bfd7619f990f20e23b47d0738a6a8449
0,          8,          8,        1,    63630, 800405f45ca5198014ef8d8521b044fa
0,          9,          9,        1,    63630, dca4eda872349708f54486433efc8225
